<svg width="512" height="512" viewBox="0 0 680 680" xmlns="http://www.w3.org/2000/svg">
<rect width="680" height="680" rx="120" fill="#1e1b4b"/>
<rect x="120" y="220" width="440" height="300" rx="18" fill="#4f46e5"/>
<rect x="316" y="220" width="48" height="300" fill="#3730a3"/>
<rect x="120" y="220" width="196" height="300" rx="18" fill="#6366f1"/>
<rect x="138" y="220" width="178" height="300" rx="10" fill="#818cf8"/>
<rect x="364" y="220" width="196" height="300" rx="18" fill="#6366f1"/>
<rect x="364" y="220" width="178" height="300" rx="10" fill="#a5b4fc"/>
<rect x="158" y="290" width="120" height="10" rx="5" fill="#4f46e5" opacity="0.6"/>
<rect x="158" y="316" width="100" height="10" rx="5" fill="#4f46e5" opacity="0.5"/>
<rect x="158" y="342" width="115" height="10" rx="5" fill="#4f46e5" opacity="0.5"/>
<rect x="158" y="368" width="90" height="10" rx="5" fill="#4f46e5" opacity="0.4"/>
<rect x="384" y="290" width="120" height="10" rx="5" fill="#6366f1" opacity="0.6"/>
<rect x="384" y="316" width="100" height="10" rx="5" fill="#6366f1" opacity="0.5"/>
<rect x="384" y="342" width="115" height="10" rx="5" fill="#6366f1" opacity="0.5"/>
<rect x="384" y="368" width="80" height="10" rx="5" fill="#6366f1" opacity="0.4"/>
<rect x="140" y="508" width="400" height="12" rx="6" fill="#312e81" opacity="0.7"/>
<path d="M290 100 L290 190 Q240 240 230 290 Q220 340 340 345 Q460 340 450 290 Q440 240 390 190 L390 100 Z" fill="#e0e7ff" opacity="0.95"/>
<rect x="278" y="88" width="124" height="22" rx="8" fill="#c7d2fe"/>
<ellipse cx="340" cy="300" rx="80" ry="30" fill="#4f46e5" opacity="0.4"/>
<circle cx="300" cy="285" r="10" fill="#06b6d4" opacity="0.85"/>
<circle cx="340" cy="295" r="7" fill="#f59e0b" opacity="0.85"/>
<circle cx="370" cy="280" r="8" fill="#ec4899" opacity="0.85"/>
<ellipse cx="305" cy="170" rx="12" ry="30" fill="#ffffff" opacity="0.25" transform="rotate(-15,305,170)"/>
</svg>
